<svg width="72" height="59" viewBox="0 0 72 59" fill="none" xmlns="http://www.w3.org/2000/svg">
<g style="mix-blend-mode:luminosity">
<path d="M67.2734 48.9573C67.2734 54.3703 62.8865 58.7571 57.477 58.7571H56.9495C51.5365 58.7571 47.1533 54.3703 47.1533 48.9573L46.9654 43.3708C46.9654 42.6011 46.344 41.9796 45.5779 41.9796H2.17965C0.95467 41.9796 -0.0317399 40.9751 0.000781702 39.7465C0.0296897 38.5468 1.07754 37.6253 2.27722 37.6253H47.4026C49.5635 37.6253 51.3161 39.3779 51.3161 41.5424L51.504 49.4523C51.504 52.1842 53.7191 54.3992 56.4509 54.3992H57.9614C60.6932 54.3992 62.9082 52.1842 62.9082 49.4523L62.7348 8.71729H67.0927L67.2662 48.9609L67.2734 48.9573Z" fill="#818181"/>
<path d="M71.1648 8.71036H67.479C67.2333 8.71036 67.031 8.51162 67.031 8.2659V7.76723L67.0238 6.97587C67.0238 6.37603 66.778 5.83039 66.3842 5.44013C65.9903 5.04987 65.4482 4.80777 64.8447 4.80777C63.6378 4.80777 62.6622 5.79064 62.6658 6.99394V7.8648L62.6694 8.26228C62.6694 8.51161 62.4707 8.71036 62.2214 8.71036H58.6114C58.2356 8.71036 58.0261 8.27673 58.261 7.98043L64.534 0.168028C64.7147 -0.0560093 65.0544 -0.0560093 65.2315 0.168028L71.508 7.98043C71.7429 8.27312 71.5334 8.71036 71.1576 8.71036" fill="#818181"/>
</g>
</svg>
