<svg width="148" height="148" viewBox="0 0 148 148" fill="none" xmlns="http://www.w3.org/2000/svg">
<path d="M51.6553 125.655C42.5732 134.737 31.3459 141.181 19.1643 144.493C14.2748 145.822 9.75181 144.384 6.42318 141.32C3.08071 138.244 0.948282 133.526 0.948282 128.357L0.948302 19.6424C0.948303 14.4735 3.08072 9.75561 6.42319 6.67935C9.75183 3.61582 14.2748 2.17727 19.1643 3.50669C31.3459 6.81878 42.5732 13.2625 51.6553 22.3446C65.3551 36.0444 73.0516 54.6254 73.0516 73.9999C73.0516 93.3744 65.3551 111.955 51.6553 125.655ZM96.3445 22.3446C105.427 13.2625 116.654 6.81878 128.835 3.50669C133.725 2.17727 138.248 3.61582 141.577 6.67934C144.919 9.7556 147.051 14.4735 147.051 19.6424L147.051 128.357C147.051 133.526 144.919 138.244 141.577 141.32C138.248 144.384 133.725 145.822 128.835 144.493C116.654 141.181 105.427 134.737 96.3445 125.655C82.6446 111.955 74.9482 93.3744 74.9482 73.9999C74.9482 54.6254 82.6447 36.0444 96.3445 22.3446Z" fill="#5E66FF" fill-opacity="0.05" stroke="#5E66FF" stroke-width="1.89659"/>
<mask id="mask0_86_194" style="mask-type:alpha" maskUnits="userSpaceOnUse" x="0" y="2" width="148" height="144">
<path d="M51.6553 125.655C42.5732 134.737 31.3459 141.181 19.1643 144.493C14.2748 145.822 9.75181 144.384 6.42318 141.32C3.08071 138.244 0.948282 133.526 0.948282 128.357L0.948302 19.6424C0.948303 14.4735 3.08072 9.75561 6.42319 6.67935C9.75183 3.61582 14.2748 2.17727 19.1643 3.50669C31.3459 6.81878 42.5732 13.2625 51.6553 22.3446C65.3551 36.0444 73.0516 54.6254 73.0516 73.9999C73.0516 93.3744 65.3551 111.955 51.6553 125.655ZM96.3445 22.3446C105.427 13.2625 116.654 6.81878 128.835 3.50669C133.725 2.17727 138.248 3.61582 141.577 6.67934C144.919 9.7556 147.051 14.4735 147.051 19.6424L147.051 128.357C147.051 133.526 144.919 138.244 141.577 141.32C138.248 144.384 133.725 145.822 128.835 144.493C116.654 141.181 105.427 134.737 96.3445 125.655C82.6446 111.955 74.9482 93.3744 74.9482 73.9999C74.9482 54.6254 82.6447 36.0444 96.3445 22.3446Z" fill="#5E66FF" fill-opacity="0.25" stroke="#5E66FF" stroke-width="1.89659"/>
</mask>
<g mask="url(#mask0_86_194)">
<rect y="38" width="148" height="112" fill="#5E66FF"/>
</g>
</svg>
