<svg xmlns="http://www.w3.org/2000/svg" version="1.1" xmlns:xlink="http://www.w3.org/1999/xlink" xmlns:svgjs="http://svgjs.dev/svgjs" width="1000" height="1000"><g clip-path="url(#SvgjsClipPath1112)"><rect width="1000" height="1000" fill="#ffffff"></rect><g transform="matrix(2.73972602739726,0,0,2.73972602739726,0,139.72602739726028)"><svg xmlns="http://www.w3.org/2000/svg" version="1.1" xmlns:xlink="http://www.w3.org/1999/xlink" xmlns:svgjs="http://svgjs.dev/svgjs" width="365" height="263"><svg width="365" height="263" viewBox="0 0 365 263" fill="none" xmlns="http://www.w3.org/2000/svg">
<path d="M59.1373 88.9481C58.844 88.8601 58.5358 88.8015 58.2278 88.7575L23.086 83.0227C19.6686 82.172 17.1018 78.7547 17.1018 74.4866C17.1018 69.5292 21.3703 65.9505 25.6384 65.9505H67.043C69.155 65.9505 71.0906 65.0851 72.4693 63.7064C73.8626 62.3131 74.7137 60.3771 74.7137 58.265C74.7137 54.0263 71.2813 50.5796 67.0279 50.5796H24.7582C10.2527 50.5796 0 60.8171 0 74.4866C0 86.2788 8.31664 94.9176 18.8621 97.7629C19.1555 97.8509 19.4339 97.9096 19.7272 97.9389L54.2531 103.41C54.6785 103.483 55.1036 103.571 55.5143 103.718C58.7557 104.92 60.8675 108.03 60.8675 112.048C60.8675 117.006 56.7757 120.585 52.3317 120.585H9.4017C7.275 120.585 5.35407 121.45 3.97538 122.829C2.58203 124.222 1.73095 126.143 1.73095 128.255C1.73095 132.494 5.16334 135.941 9.41674 135.941H54.0626C67.7175 135.941 77.9694 124.853 77.9694 112.034C77.9694 100.256 69.8291 91.9402 59.1223 88.9335" fill="#060832"></path>
<path d="M153.195 120.585H119.051C110.837 120.585 104.208 113.926 104.208 105.727V72.7852C104.208 68.8545 107.611 65.9505 111.717 65.9505H153.195C155.322 65.9505 157.243 65.0851 158.636 63.7064C160.03 62.3131 160.881 60.3771 160.881 58.265C160.881 54.0263 157.434 50.5796 153.195 50.5796H111.717C98.1213 50.5796 87.1211 61.5797 87.1211 75.1613V103.512C87.1211 121.347 101.729 135.941 119.564 135.941H153.195C155.322 135.941 157.243 135.075 158.636 133.697C160.03 132.303 160.881 130.382 160.881 128.27C160.881 124.031 157.434 120.585 153.195 120.585Z" fill="#060832"></path>
<path d="M217.861 50.5796H178.525C174.286 50.5796 170.84 54.0263 170.84 58.265C170.84 62.5037 174.286 65.9505 178.525 65.9505H217.861C221.968 65.9505 224.696 68.8399 224.696 72.7852V81.6587L188.645 88.4935C178.745 90.8695 168.508 98.3789 168.508 112.048C168.508 126.554 179.611 135.955 192.415 135.955H241.798V74.4866C241.798 61.2864 231.091 50.5796 217.891 50.5796M224.726 120.585H194.131C189.863 120.585 185.594 116.991 185.594 112.048C185.594 107.78 188.161 104.202 192.606 103.175L224.726 97.5429V120.599V120.585Z" fill="#060832"></path>
<path d="M353.794 120.261L320.354 120.554C311.304 120.554 304.117 114.057 303.78 105.169L344.48 97.4541C355.084 94.55 365 86.8499 365 74.0311C365 60.3469 355.598 50.0947 341.063 50.0947L311.832 50.4467C298.163 50.4467 286.693 61.0509 286.693 74.3831V102.587C286.693 120.892 301.902 135.925 320.368 135.925L353.955 135.632C358.179 135.588 361.582 132.156 361.582 127.946C361.582 123.737 358.106 120.217 353.823 120.261M303.795 74.3977C303.795 69.4403 307.388 65.8616 311.832 65.8616L339.362 65.4949C343.806 65.4949 347.913 69.0883 347.913 74.0457C347.913 77.9765 344.656 81.7312 341.078 82.5819L303.795 88.7713V74.3977Z" fill="#060832"></path>
<path d="M334.464 150.872H291.432V230.131C291.432 234.751 295.172 238.492 299.777 238.492C302.08 238.492 304.177 237.553 305.688 236.042C307.214 234.531 308.137 232.449 308.137 230.131V166.741H333.819C341.284 166.741 347.078 173.781 346.022 181.379C345.142 187.715 339.466 192.291 333.071 192.291H323.23C318.859 192.291 315.31 195.826 315.31 200.211C315.31 202.396 316.189 204.391 317.626 205.828C319.049 207.266 321.044 208.146 323.23 208.146H335.051C351.112 208.146 364.106 195.122 363.754 178.959C363.402 163.25 350.158 150.901 334.464 150.901" fill="#060832"></path>
<path d="M274.433 198.714C274.433 220.685 256.626 238.49 234.67 238.49H232.529C210.558 238.49 192.767 220.685 192.767 198.714L192.004 176.039C192.004 172.915 189.482 170.392 186.373 170.392H10.2232C5.25113 170.392 1.24739 166.315 1.37939 161.328C1.49673 156.458 5.74984 152.718 10.6192 152.718H193.779C202.55 152.718 209.663 159.832 209.663 168.617L210.426 200.723C210.426 211.811 219.417 220.802 230.505 220.802H236.636C247.724 220.802 256.715 211.811 256.715 200.723L256.011 35.3833H273.699L274.403 198.728L274.433 198.714Z" fill="#7570FD"></path>
<path d="M290.228 35.3545H275.268C274.27 35.3545 273.449 34.5478 273.449 33.5505V31.5265L273.42 28.3144C273.42 25.8797 272.423 23.665 270.824 22.081C269.225 20.497 267.025 19.5143 264.575 19.5143C259.677 19.5143 255.717 23.5037 255.732 28.3877V31.9225L255.746 33.5358C255.746 34.5478 254.94 35.3545 253.928 35.3545H239.275C237.75 35.3545 236.899 33.5945 237.853 32.3918L263.314 0.68201C264.048 -0.227337 265.427 -0.227337 266.145 0.68201L291.621 32.3918C292.574 33.5798 291.724 35.3545 290.199 35.3545" fill="#7570FD"></path>
<path d="M49.5384 230.494C49.5384 231.966 49.0562 233.159 48.0916 234.073C47.1271 234.987 45.9595 235.57 44.5889 235.824C43.0659 236.18 41.3399 236.51 39.4109 236.814C37.4818 237.068 35.502 237.296 33.4714 237.5C31.4916 237.703 29.5371 237.855 27.6081 237.956C25.679 238.058 23.9276 238.109 22.3539 238.109C21.9478 238.109 21.364 238.083 20.6025 238.033C19.8918 238.033 19.1303 237.982 18.3181 237.88C17.5566 237.829 16.8206 237.728 16.1098 237.576C15.4499 237.423 14.9423 237.22 14.5869 236.966C14.2315 236.662 13.9016 236.256 13.597 235.748C13.3432 235.19 13.1147 234.606 12.9117 233.997C12.7086 233.337 12.5563 232.702 12.4548 232.093C12.3533 231.484 12.3025 230.951 12.3025 230.494C12.3025 229.783 12.3786 229.149 12.5309 228.59C12.734 227.981 13.0893 227.423 13.597 226.915C14.2062 226.255 14.8407 225.621 15.5007 225.011C16.1606 224.351 16.7952 223.717 17.4043 223.108C18.1151 222.346 19.0542 221.356 20.2218 220.138C21.3894 218.869 22.6331 217.473 23.953 215.95C25.3237 214.376 26.6689 212.752 27.9888 211.076C29.3594 209.35 30.6032 207.675 31.72 206.051C32.8368 204.426 33.7252 202.903 34.3852 201.482C35.0959 200.06 35.4512 198.842 35.4512 197.827C35.4512 196.862 35.172 196.075 34.6136 195.466C34.0552 194.806 33.2937 194.476 32.3292 194.476C31.2631 194.476 30.2732 194.857 29.3594 195.619C28.4457 196.38 27.5319 197.218 26.6182 198.131C25.7044 198.994 24.7145 199.807 23.6484 200.568C22.6331 201.33 21.4655 201.71 20.1456 201.71C18.5719 201.71 17.3282 201.253 16.4144 200.34C15.5514 199.426 15.1199 198.208 15.1199 196.685C15.1199 194.451 15.6022 192.395 16.5667 190.517C17.582 188.588 18.9019 186.938 20.5264 185.567C22.1509 184.197 23.9784 183.13 26.009 182.369C28.0396 181.557 30.1209 181.151 32.253 181.151C34.4359 181.151 36.4665 181.404 38.3448 181.912C40.2231 182.42 41.8476 183.207 43.2182 184.273C44.5889 185.339 45.6549 186.709 46.4164 188.385C47.2286 190.009 47.6348 191.989 47.6348 194.324C47.6348 196.152 47.3048 198.081 46.6449 200.111C46.0357 202.091 45.1981 204.096 44.132 206.127C43.1167 208.157 41.9237 210.188 40.5531 212.219C39.2332 214.198 37.8625 216.102 36.4411 217.93C35.0197 219.757 33.5983 221.458 32.1769 223.032C30.7555 224.605 29.461 225.976 28.2934 227.143C30.7809 226.839 33.3952 226.534 36.1365 226.23C38.8778 225.925 41.5176 225.773 44.0559 225.773C45.528 225.773 46.7971 226.179 47.8632 226.991C48.98 227.753 49.5384 228.92 49.5384 230.494ZM97.5873 211.076C97.5873 214.528 97.0543 218.006 95.9882 221.509C94.9729 224.961 93.45 228.108 91.4194 230.951C89.4396 233.743 86.9521 236.002 83.957 237.728C80.9618 239.505 77.5098 240.393 73.6009 240.393C70.3012 240.393 67.3315 239.53 64.6917 237.804C62.052 236.078 59.7929 233.895 57.9146 231.255C56.0871 228.565 54.6657 225.646 53.6504 222.499C52.6859 219.3 52.2036 216.229 52.2036 213.285C52.2036 211.203 52.4828 209.02 53.0412 206.736C53.5996 204.452 54.3865 202.193 55.4018 199.959C56.4678 197.725 57.7116 195.593 59.133 193.563C60.6052 191.481 62.2296 189.679 64.0064 188.156C65.8339 186.582 67.7884 185.339 69.8697 184.425C72.0019 183.511 74.2101 183.054 76.4945 183.054C80.4034 183.054 83.7031 183.892 86.3937 185.567C89.0842 187.242 91.2417 189.425 92.8662 192.116C94.5414 194.756 95.7344 197.751 96.4451 201.101C97.2066 204.401 97.5873 207.726 97.5873 211.076ZM86.546 210.696C86.546 209.427 86.3683 207.929 86.0129 206.203C85.6576 204.477 85.0992 202.853 84.3377 201.33C83.627 199.807 82.6878 198.512 81.5203 197.446C80.3527 196.38 78.9566 195.847 77.3322 195.847C75.3523 195.847 73.5756 196.482 72.0019 197.751C70.4789 198.969 69.1844 200.492 68.1184 202.32C67.0523 204.147 66.2147 206.102 65.6055 208.183C65.0471 210.264 64.7679 212.143 64.7679 213.818C64.7679 215.138 64.9456 216.635 65.3009 218.31C65.6563 219.986 66.2147 221.585 66.9761 223.108C67.7376 224.58 68.7021 225.849 69.8697 226.915C71.0881 227.93 72.5095 228.438 74.134 228.438C76.1138 228.438 77.8652 227.829 79.3881 226.61C80.9618 225.341 82.2563 223.818 83.2716 222.042C84.3377 220.214 85.1499 218.285 85.7083 216.254C86.2668 214.173 86.546 212.32 86.546 210.696ZM137.184 230.494C137.184 231.966 136.702 233.159 135.737 234.073C134.772 234.987 133.605 235.57 132.234 235.824C130.711 236.18 128.985 236.51 127.056 236.814C125.127 237.068 123.147 237.296 121.117 237.5C119.137 237.703 117.182 237.855 115.253 237.956C113.324 238.058 111.573 238.109 109.999 238.109C109.593 238.109 109.009 238.083 108.248 238.033C107.537 238.033 106.776 237.982 105.963 237.88C105.202 237.829 104.466 237.728 103.755 237.576C103.095 237.423 102.588 237.22 102.232 236.966C101.877 236.662 101.547 236.256 101.242 235.748C100.989 235.19 100.76 234.606 100.557 233.997C100.354 233.337 100.202 232.702 100.1 232.093C99.9986 231.484 99.9479 230.951 99.9479 230.494C99.9479 229.783 100.024 229.149 100.176 228.59C100.379 227.981 100.735 227.423 101.242 226.915C101.852 226.255 102.486 225.621 103.146 225.011C103.806 224.351 104.441 223.717 105.05 223.108C105.76 222.346 106.7 221.356 107.867 220.138C109.035 218.869 110.278 217.473 111.598 215.95C112.969 214.376 114.314 212.752 115.634 211.076C117.005 209.35 118.249 207.675 119.365 206.051C120.482 204.426 121.371 202.903 122.031 201.482C122.741 200.06 123.097 198.842 123.097 197.827C123.097 196.862 122.817 196.075 122.259 195.466C121.701 194.806 120.939 194.476 119.975 194.476C118.908 194.476 117.919 194.857 117.005 195.619C116.091 196.38 115.177 197.218 114.264 198.131C113.35 198.994 112.36 199.807 111.294 200.568C110.278 201.33 109.111 201.71 107.791 201.71C106.217 201.71 104.974 201.253 104.06 200.34C103.197 199.426 102.765 198.208 102.765 196.685C102.765 194.451 103.248 192.395 104.212 190.517C105.227 188.588 106.547 186.938 108.172 185.567C109.796 184.197 111.624 183.13 113.654 182.369C115.685 181.557 117.766 181.151 119.898 181.151C122.081 181.151 124.112 181.404 125.99 181.912C127.868 182.42 129.493 183.207 130.864 184.273C132.234 185.339 133.3 186.709 134.062 188.385C134.874 190.009 135.28 191.989 135.28 194.324C135.28 196.152 134.95 198.081 134.29 200.111C133.681 202.091 132.843 204.096 131.777 206.127C130.762 208.157 129.569 210.188 128.198 212.219C126.879 214.198 125.508 216.102 124.087 217.93C122.665 219.757 121.244 221.458 119.822 223.032C118.401 224.605 117.106 225.976 115.939 227.143C118.426 226.839 121.041 226.534 123.782 226.23C126.523 225.925 129.163 225.773 131.701 225.773C133.173 225.773 134.443 226.179 135.509 226.991C136.625 227.753 137.184 228.92 137.184 230.494ZM177.237 219.681C177.237 222.676 176.755 225.341 175.79 227.677C174.877 230.012 173.557 231.992 171.831 233.616C170.156 235.24 168.125 236.484 165.739 237.347C163.404 238.21 160.789 238.642 157.896 238.642C156.322 238.642 154.571 238.363 152.642 237.804C150.763 237.246 148.987 236.433 147.311 235.367C145.636 234.301 144.24 233.032 143.123 231.56C142.006 230.037 141.448 228.362 141.448 226.534C141.448 225.214 141.854 224.148 142.666 223.336C143.479 222.524 144.545 222.118 145.865 222.118C147.134 222.118 148.2 222.372 149.063 222.879C149.926 223.387 150.763 223.971 151.576 224.631C152.439 225.24 153.403 225.798 154.469 226.306C155.535 226.814 156.906 227.067 158.581 227.067C160.612 227.067 162.262 226.357 163.531 224.935C164.8 223.514 165.434 221.813 165.434 219.833C165.434 217.955 165.003 216.331 164.14 214.96C163.277 213.589 161.855 212.904 159.876 212.904C158.962 212.904 158.124 213.006 157.363 213.209C156.652 213.412 155.941 213.64 155.231 213.894C154.571 214.148 153.885 214.402 153.175 214.655C152.515 214.858 151.829 215.011 151.119 215.112C150.56 215.214 149.85 215.188 148.987 215.036C148.124 214.833 147.235 214.554 146.321 214.198C145.458 213.843 144.672 213.437 143.961 212.98C143.25 212.472 142.793 211.939 142.59 211.381C142.438 210.924 142.286 209.934 142.133 208.411C142.032 206.888 141.93 205.239 141.829 203.462C141.778 201.685 141.727 200.01 141.677 198.436C141.677 196.812 141.677 195.695 141.677 195.086C141.677 194.679 141.677 194.019 141.677 193.106C141.677 192.192 141.702 191.253 141.753 190.288C141.854 189.273 141.956 188.334 142.057 187.471C142.159 186.608 142.336 186.024 142.59 185.719C142.895 185.263 143.631 184.831 144.799 184.425C146.017 184.019 147.413 183.638 148.987 183.283C150.611 182.927 152.362 182.623 154.241 182.369C156.119 182.064 157.896 181.811 159.571 181.608C161.297 181.404 162.845 181.252 164.216 181.151C165.637 181.049 166.653 180.998 167.262 180.998C167.973 180.998 168.709 181.1 169.47 181.303C170.282 181.455 170.993 181.734 171.602 182.141C172.262 182.496 172.795 182.978 173.201 183.587C173.608 184.197 173.811 184.933 173.811 185.796C173.811 187.166 173.328 188.258 172.364 189.07C171.399 189.882 170.333 190.491 169.166 190.897C168.252 191.202 167.135 191.456 165.815 191.659C164.495 191.862 163.15 192.065 161.779 192.268C160.409 192.42 159.063 192.547 157.744 192.649C156.474 192.75 155.358 192.827 154.393 192.877L154.545 203.919C155.561 203.716 156.576 203.563 157.591 203.462C158.607 203.309 159.647 203.233 160.713 203.233C166.094 203.233 170.181 204.629 172.973 207.421C175.816 210.213 177.237 214.3 177.237 219.681Z" fill="#060832"></path>
</svg></svg></g></g><defs><clipPath id="SvgjsClipPath1112"><rect width="1000" height="1000" x="0" y="0" rx="300" ry="300"></rect></clipPath></defs></svg>