<svg width="170" height="39" viewBox="0 0 170 39" fill="none" xmlns="http://www.w3.org/2000/svg">
<path d="M167.387 10.0308C168.811 12.3886 167.982 15.4581 165.565 16.7785L159.586 20.0439C159.055 20.3337 158.408 19.9497 158.408 19.3452C158.408 18.7427 159.051 18.3585 159.582 18.6441L165.53 21.8471C167.962 23.1566 168.803 26.2351 167.375 28.5994L167.243 28.8167C165.908 31.0264 163.037 31.7396 160.823 30.4113L154.786 26.7889C154.488 26.6101 154.488 26.178 154.786 25.9992C155.089 25.8174 155.475 26.0304 155.483 26.3837L155.633 33.0296C155.688 35.4552 153.737 37.451 151.31 37.451H149.99C147.564 37.451 145.613 35.4552 145.667 33.0296L145.817 26.3837C145.825 26.0304 146.212 25.8174 146.515 25.9992C146.813 26.178 146.813 26.6101 146.515 26.7889L140.497 30.3997C138.277 31.7314 135.398 31.0046 134.076 28.779L133.969 28.5988C132.563 26.2292 133.412 23.1649 135.839 21.8584L141.808 18.6441C142.339 18.3585 142.982 18.7427 142.982 19.3452C142.982 19.9497 142.334 20.3337 141.804 20.0439L135.804 16.767C133.392 15.4498 132.555 12.3944 133.958 10.0315L134.048 9.87908C135.383 7.63116 138.296 6.90521 140.529 8.26392L146.519 11.9079C146.816 12.0885 146.815 12.52 146.517 12.6988C146.213 12.8812 145.825 12.6674 145.817 12.3129L145.667 5.61285C145.613 3.16945 147.578 1.15918 150.022 1.15918H151.278C153.722 1.15918 155.688 3.16945 155.633 5.61285L155.483 12.3129C155.475 12.6674 155.088 12.8812 154.784 12.6988C154.486 12.52 154.484 12.0885 154.781 11.9079L160.791 8.25219C163.019 6.89687 165.924 7.60901 167.272 9.84105L167.387 10.0308Z" fill="#F859FC"/>
<path d="M18.3858 5.83236C18.3858 2.61124 15.7746 0 12.5535 0H5.83236C2.61124 0 0 2.61124 0 5.83236V12.5535C0 15.7746 2.61124 18.3858 5.83237 18.3858H14.5375C14.8423 18.3858 15.1345 18.5069 15.35 18.7224L15.675 19.0474C15.9443 19.3166 15.9443 19.7532 15.675 20.0225C15.5457 20.1518 15.3703 20.2244 15.1874 20.2244H5.83236C2.61124 20.2244 0 22.8357 0 26.0568V32.7779C0 35.999 2.61124 38.6102 5.83236 38.6102H12.5535C15.7746 38.6102 18.3858 35.999 18.3858 32.7779V23.9776C18.3858 23.7338 18.4827 23.5 18.6551 23.3275C19.0141 22.9685 19.5962 22.9685 19.9552 23.3275C20.1276 23.4999 20.2244 23.7337 20.2244 23.9775V32.7779C20.2244 35.999 22.8357 38.6102 26.0568 38.6102H32.7779C35.999 38.6102 38.6102 35.999 38.6102 32.7779V26.0568C38.6102 22.8356 35.999 20.2244 32.7779 20.2244H23.4228C23.24 20.2244 23.0646 20.1518 22.9353 20.0225C22.666 19.7532 22.666 19.3166 22.9353 19.0474L23.2603 18.7224C23.4758 18.5069 23.768 18.3858 24.0728 18.3858H32.7779C35.999 18.3858 38.6102 15.7746 38.6102 12.5535V5.83236C38.6102 2.61124 35.999 0 32.7779 0H26.0568C22.8356 0 20.2244 2.61124 20.2244 5.83236V15.0923C20.2244 15.3361 20.1276 15.5699 19.9552 15.7423C19.5962 16.1013 19.0141 16.1013 18.6551 15.7423C18.4827 15.5699 18.3858 15.336 18.3858 15.0922V5.83236Z" fill="#7570FD"/>
<path d="M98.6179 5.64066C102.23 9.25232 104.259 14.1508 104.259 19.2584L65.7417 19.2584C65.7417 14.1508 67.7707 9.25231 71.3824 5.64066C74.994 2.02901 79.8925 -3.85617e-07 85.0001 0C90.1078 3.85617e-07 95.0062 2.02901 98.6179 5.64066Z" fill="#FED33B"/>
<path d="M98.6179 24.9653C102.23 28.5769 104.259 33.4754 104.259 38.583H65.7417C65.7417 33.4754 67.7707 28.5769 71.3824 24.9653C74.994 21.3536 79.8925 19.3246 85.0001 19.3246C90.1078 19.3246 95.0062 21.3536 98.6179 24.9653Z" fill="#FED33B"/>
</svg>
