<svg width="173" height="39" viewBox="0 0 173 39" fill="none" xmlns="http://www.w3.org/2000/svg">
<path d="M2.11955e-05 38.7235C5.13507 38.7235 10.0598 36.6836 13.6908 33.0526C17.3219 29.4215 19.3618 24.4968 19.3618 19.3617C19.3618 14.2267 17.3219 9.30196 13.6908 5.67092C10.0598 2.03989 5.13508 -6.92825e-07 2.67029e-05 -1.69266e-06L2.11955e-05 38.7235Z" fill="#7570FD"/>
<path d="M38.7235 0C33.5885 -2.2446e-07 28.6637 2.03989 25.0327 5.67092C21.4017 9.30195 19.3618 14.2267 19.3618 19.3617C19.3618 24.4968 21.4017 29.4215 25.0327 33.0526C28.6637 36.6836 33.5885 38.7235 38.7235 38.7235L38.7235 0Z" fill="#7570FD"/>
<path d="M99.7145 0.282653C102.789 0.282653 105.281 2.775 105.281 5.84947V33.459C105.281 36.2104 103.051 38.4408 100.299 38.4408C97.548 38.4408 95.3176 36.2104 95.3176 33.459V31.9791C95.3176 26.5159 88.7124 23.78 84.8494 27.643L77.6914 34.801C75.7459 36.7465 72.5916 36.7465 70.646 34.801C68.7005 32.8554 68.7005 29.7011 70.646 27.7556L77.687 20.7146C81.55 16.8516 78.8141 10.2464 73.3509 10.2464H71.988C69.2366 10.2464 67.0062 8.01593 67.0062 5.26452C67.0062 2.51311 69.2366 0.282653 71.988 0.282653H99.7145Z" fill="#E72462" style="mix-blend-mode:color"/>
<path d="M99.7145 0.282653C102.789 0.282653 105.281 2.775 105.281 5.84947V33.459C105.281 36.2104 103.051 38.4408 100.299 38.4408C97.548 38.4408 95.3176 36.2104 95.3176 33.459V31.9791C95.3176 26.5159 88.7124 23.78 84.8494 27.643L77.6914 34.801C75.7459 36.7465 72.5916 36.7465 70.646 34.801C68.7005 32.8554 68.7005 29.7011 70.646 27.7556L77.687 20.7146C81.55 16.8516 78.8141 10.2464 73.3509 10.2464H71.988C69.2366 10.2464 67.0062 8.01593 67.0062 5.26452C67.0062 2.51311 69.2366 0.282653 71.988 0.282653H99.7145Z" stroke="#7570FD" stroke-width="0.565306"/>
<path d="M133.564 5.26452C133.564 2.35701 135.921 0 138.828 0H166.438C169.669 0 172.287 2.61889 172.287 5.84947V33.459C172.287 36.3665 169.93 38.7235 167.023 38.7235C164.115 38.7235 161.758 36.3665 161.758 33.459V16.3785C161.758 13.1479 159.14 10.529 155.909 10.529H138.828C135.921 10.529 133.564 8.17204 133.564 5.26452Z" fill="#FED33B"/>
<path d="M133.564 19.3032C133.564 16.3957 135.921 14.0387 138.828 14.0387H152.399C155.63 14.0387 158.249 16.6576 158.249 19.8882V33.459C158.249 36.3665 155.892 38.7235 152.984 38.7235C150.077 38.7235 147.72 36.3665 147.72 33.459V30.4172C147.72 27.1867 145.101 24.5678 141.87 24.5678H138.828C135.921 24.5678 133.564 22.2108 133.564 19.3032Z" fill="#FED33B"/>
<path d="M144.093 33.459C144.093 30.5515 141.736 28.1944 138.828 28.1944C135.921 28.1944 133.564 30.5515 133.564 33.459C133.564 36.3665 135.921 38.7235 138.828 38.7235C141.736 38.7235 144.093 36.3665 144.093 33.459Z" fill="#FED33B"/>
</svg>
