<svg width="39" height="161" viewBox="0 0 39 161" fill="none" xmlns="http://www.w3.org/2000/svg">
<path d="M35.997 132.872C37.4214 135.229 36.5926 138.299 34.1751 139.619L28.1961 142.885C27.6655 143.175 27.0183 142.791 27.0183 142.186C27.0183 141.584 27.6615 141.199 28.1919 141.485L34.1402 144.688C36.5723 145.997 37.4133 149.076 35.9849 151.44L35.8536 151.657C34.5186 153.867 31.6473 154.58 29.4335 153.252L23.3962 149.63C23.0982 149.451 23.0982 149.019 23.3962 148.84C23.6992 148.658 24.0856 148.871 24.0935 149.224L24.2434 155.87C24.2982 158.296 22.3468 160.292 19.9206 160.292H18.6005C16.1742 160.292 14.2229 158.296 14.2776 155.87L14.4275 149.224C14.4355 148.871 14.8219 148.658 15.1248 148.84C15.4229 149.019 15.4229 149.451 15.1248 149.63L9.10681 153.241C6.88733 154.572 4.00816 153.845 2.68671 151.62L2.57972 151.44C1.17279 149.07 2.02259 146.006 4.44897 144.699L10.4183 141.485C10.9488 141.199 11.592 141.584 11.592 142.186C11.592 142.791 10.9447 143.175 10.4141 142.885L4.41417 139.608C2.00236 138.291 1.16482 135.235 2.56781 132.872L2.6583 132.72C3.993 130.472 6.90604 129.746 9.13954 131.105L15.1296 134.749C15.4265 134.929 15.4252 135.361 15.1272 135.54C14.8232 135.722 14.4355 135.508 14.4276 135.154L14.2776 128.454C14.2229 126.01 16.1887 124 18.6327 124H19.8884C22.3324 124 24.2982 126.01 24.2435 128.454L24.0935 135.154C24.0855 135.508 23.6979 135.722 23.3939 135.54C23.0959 135.361 23.0945 134.929 23.3915 134.749L29.4008 131.093C31.6287 129.738 34.5338 130.45 35.8823 132.682L35.997 132.872Z" fill="#F859FC"/>
<path d="M18.3858 5.83236C18.3858 2.61124 15.7746 0 12.5535 0H5.83236C2.61124 0 0 2.61124 0 5.83236V12.5535C0 15.7746 2.61124 18.3858 5.83237 18.3858H14.5375C14.8423 18.3858 15.1345 18.5069 15.35 18.7224L15.675 19.0474C15.9443 19.3166 15.9443 19.7532 15.675 20.0225C15.5457 20.1518 15.3703 20.2244 15.1874 20.2244H5.83236C2.61124 20.2244 0 22.8357 0 26.0568V32.7779C0 35.999 2.61124 38.6102 5.83236 38.6102H12.5535C15.7746 38.6102 18.3858 35.999 18.3858 32.7779V23.9776C18.3858 23.7338 18.4827 23.5 18.6551 23.3275C19.0141 22.9685 19.5962 22.9685 19.9552 23.3275C20.1276 23.4999 20.2244 23.7337 20.2244 23.9775V32.7779C20.2244 35.999 22.8357 38.6102 26.0568 38.6102H32.7779C35.999 38.6102 38.6102 35.999 38.6102 32.7779V26.0568C38.6102 22.8356 35.999 20.2244 32.7779 20.2244H23.4228C23.24 20.2244 23.0646 20.1518 22.9353 20.0225C22.666 19.7532 22.666 19.3166 22.9353 19.0474L23.2603 18.7224C23.4758 18.5069 23.768 18.3858 24.0728 18.3858H32.7779C35.999 18.3858 38.6102 15.7746 38.6102 12.5535V5.83236C38.6102 2.61124 35.999 0 32.7779 0H26.0568C22.8356 0 20.2244 2.61124 20.2244 5.83236V15.0923C20.2244 15.3361 20.1276 15.5699 19.9552 15.7423C19.5962 16.1013 19.0141 16.1013 18.6551 15.7423C18.4827 15.5699 18.3858 15.336 18.3858 15.0922V5.83236Z" fill="#7570FD"/>
<path d="M32.8762 67.6407C36.4878 71.2523 38.5169 76.1508 38.5169 81.2584L0 81.2584C7.71234e-07 76.1508 2.02901 71.2523 5.64066 67.6407C9.25232 64.029 14.1508 62 19.2584 62C24.3661 62 29.2645 64.029 32.8762 67.6407Z" fill="#FED33B"/>
<path d="M32.8762 86.9653C36.4878 90.5769 38.5169 95.4754 38.5169 100.583H0C7.71234e-07 95.4754 2.02901 90.5769 5.64066 86.9653C9.25232 83.3536 14.1508 81.3246 19.2584 81.3246C24.3661 81.3246 29.2645 83.3536 32.8762 86.9653Z" fill="#FED33B"/>
</svg>
