<svg width="473" height="473" viewBox="0 0 473 473" fill="none" xmlns="http://www.w3.org/2000/svg">
<path d="M272.942 122.677H200.062C158.113 122.677 124.106 156.684 124.106 198.633V271.513C124.106 313.462 158.113 347.468 200.062 347.468H272.942C314.891 347.468 348.897 313.462 348.897 271.513V198.633C348.897 156.684 314.891 122.677 272.942 122.677ZM71.4507 4.50483H401.553C438.526 4.50483 468.499 34.4775 468.499 71.4507V401.553C468.499 438.526 438.526 468.499 401.553 468.499H71.4507C34.4775 468.499 4.50483 438.526 4.50483 401.553V71.4507C4.50483 34.4775 34.4775 4.50483 71.4507 4.50483ZM235.787 294.159C202.76 294.159 175.987 267.385 175.987 234.358C175.987 201.331 202.76 174.558 235.787 174.558C268.814 174.558 295.588 201.331 295.588 234.358C295.588 267.385 268.814 294.159 235.787 294.159Z" stroke="#E72462" stroke-width="9.00965"/>
</svg>
