<svg width="476" height="473" viewBox="0 0 476 473" fill="none" xmlns="http://www.w3.org/2000/svg">
<path d="M2.3334 71.4507V408.698C2.3334 443.375 30.4443 471.486 65.1209 471.486C99.7974 471.486 127.908 443.375 127.908 408.698V390.622C127.908 325.613 206.506 293.057 252.474 339.025L339.908 426.459C364.428 450.979 404.183 450.979 428.703 426.459C453.223 401.939 453.223 362.184 428.703 337.664L342.698 251.659C296.73 205.691 329.286 127.093 394.295 127.093H410.942C445.619 127.093 473.73 98.9822 473.73 64.3056C473.73 29.6291 445.619 1.51818 410.942 1.51818H72.2659C33.6433 1.51818 2.3334 32.828 2.3334 71.4507Z" stroke="#7570FD" stroke-width="3.03637"/>
</svg>
