<svg width="474" height="473" viewBox="0 0 474 473" fill="none" xmlns="http://www.w3.org/2000/svg">
<path d="M349.319 408.698V200.062C349.319 158.113 315.312 124.106 273.363 124.106H64.727C31.6999 124.106 4.92618 97.3327 4.92618 64.3056C4.92618 31.2785 31.6999 4.5048 64.727 4.5048H401.974C438.948 4.5048 468.92 34.4775 468.92 71.4507V408.698C468.92 441.725 442.147 468.499 409.12 468.499C376.092 468.499 349.319 441.725 349.319 408.698ZM177.837 408.698V371.544C177.837 329.595 143.83 295.588 101.881 295.588H64.727C31.6999 295.588 4.92618 268.814 4.92618 235.787C4.92618 202.76 31.6999 175.987 64.727 175.987H230.493C267.466 175.987 297.439 205.959 297.439 242.932V408.698C297.439 441.725 270.665 468.499 237.638 468.499C204.611 468.499 177.837 441.725 177.837 408.698ZM124.528 408.698C124.528 441.725 97.7541 468.499 64.727 468.499C31.6999 468.499 4.92618 441.725 4.92618 408.698C4.92618 375.671 31.6999 348.897 64.727 348.897C97.7541 348.897 124.528 375.671 124.528 408.698Z" stroke="#FED33B" stroke-width="9.0096"/>
</svg>
