<svg width="473" height="473" viewBox="0 0 473 473" fill="none" xmlns="http://www.w3.org/2000/svg">
<path d="M470.189 64.035L470.189 408.969C470.189 442.78 442.78 470.189 408.969 470.189C375.158 470.189 347.749 442.78 347.749 408.969L347.749 64.035C347.749 30.2242 375.158 2.81516 408.969 2.81516C442.78 2.81517 470.189 30.2242 470.189 64.035ZM125.255 64.0348L125.255 408.969C125.255 442.78 97.8456 470.189 64.0348 470.189C30.224 470.189 2.81498 442.78 2.81498 408.969L2.815 64.0348C2.815 30.224 30.2241 2.81498 64.0348 2.81498C97.8456 2.81498 125.255 30.224 125.255 64.0348ZM297.722 64.0348L297.722 408.969C297.722 442.78 270.313 470.189 236.502 470.189C202.691 470.189 175.282 442.78 175.282 408.969L175.282 64.0348C175.282 30.224 202.691 2.81499 236.502 2.81499C270.313 2.81499 297.722 30.224 297.722 64.0348Z" fill="#FFCE00" fill-opacity="0.2" stroke="#FFCE00" stroke-width="5.63"/>
</svg>
