<svg width="414" height="413" viewBox="0 0 414 413" fill="none" xmlns="http://www.w3.org/2000/svg">
<path d="M145.419 265.607C112.689 298.337 59.6225 298.337 26.8923 265.607C-5.83783 232.877 -5.83783 179.811 26.8923 147.081C59.6225 114.351 112.689 114.351 145.419 147.081C178.149 179.811 178.149 232.877 145.419 265.607ZM387.075 265.607C354.345 298.337 301.278 298.337 268.548 265.607C235.818 232.877 235.818 179.811 268.548 147.081C301.278 114.351 354.345 114.351 387.075 147.081C419.805 179.811 419.805 232.877 387.075 265.607ZM147.72 386.435C114.99 353.705 114.99 300.639 147.72 267.909C180.45 235.179 233.517 235.179 266.247 267.909C298.977 300.639 298.977 353.705 266.247 386.435C233.517 419.165 180.451 419.165 147.72 386.435ZM266.247 144.779C233.517 177.509 180.45 177.509 147.72 144.779C114.99 112.049 114.99 58.983 147.72 26.2528C180.451 -6.47742 233.517 -6.47741 266.247 26.2528C298.977 58.983 298.977 112.049 266.247 144.779Z" stroke="#E72462" stroke-width="3.25479"/>
</svg>
