<svg width="131" height="131" viewBox="0 0 131 131" fill="none" xmlns="http://www.w3.org/2000/svg">
<path d="M0 32.6444C0 14.6154 14.6154 0 32.6444 0C50.6734 0 65.2888 14.6154 65.2888 32.6444C65.2888 50.6734 50.6734 65.2888 32.6444 65.2888C14.6154 65.2888 0 50.6734 0 32.6444Z" fill="#E72462"/>
<path d="M0 97.9332C0 79.9042 14.6154 65.2888 32.6444 65.2888C50.6734 65.2888 65.2888 79.9042 65.2888 97.9332C65.2888 115.962 50.6734 130.578 32.6444 130.578C14.6154 130.578 0 115.962 0 97.9332Z" fill="#E72462"/>
<path d="M65.2888 32.6444C65.2888 14.6154 79.9042 0 97.9332 0C115.962 0 130.578 14.6154 130.578 32.6444C130.578 50.6734 115.962 65.2888 97.9332 65.2888C79.9042 65.2888 65.2888 50.6734 65.2888 32.6444Z" fill="#E72462"/>
<path d="M65.2888 97.9332C65.2888 79.9042 79.9042 65.2888 97.9332 65.2888C115.962 65.2888 130.578 79.9042 130.578 97.9332C130.578 115.962 115.962 130.578 97.9332 130.578C79.9042 130.578 65.2888 115.962 65.2888 97.9332Z" fill="#E72462"/>
</svg>
