<svg width="395" height="395" viewBox="0 0 395 395" fill="none" xmlns="http://www.w3.org/2000/svg">
<path d="M32.5997 1.57385H155.495C172.631 1.57385 186.521 15.4646 186.521 32.5997V154.4C186.521 157.312 187.678 160.104 189.737 162.163C194.024 166.451 200.976 166.451 205.263 162.164C207.322 160.105 208.479 157.312 208.479 154.401V32.5997C208.479 15.4646 222.369 1.57385 239.505 1.57385H362.4C379.535 1.57385 393.426 15.4646 393.426 32.5997V155.495C393.426 172.631 379.535 186.521 362.4 186.521H246.275C242.74 186.521 239.35 187.926 236.85 190.425L233.525 193.75C230.156 197.119 230.156 202.582 233.525 205.952C235.143 207.57 237.338 208.479 239.626 208.479H362.4C379.535 208.479 393.426 222.369 393.426 239.505V362.4C393.426 379.535 379.535 393.426 362.4 393.426H239.505C222.369 393.426 208.479 379.535 208.479 362.4V245.301C208.479 242.389 207.322 239.597 205.263 237.538C200.976 233.251 194.024 233.251 189.737 237.538C187.678 239.597 186.521 242.39 186.521 245.302V362.4C186.521 379.535 172.631 393.426 155.495 393.426H32.5997C15.4646 393.426 1.57385 379.535 1.57385 362.4V239.505C1.57385 222.369 15.4646 208.479 32.5997 208.479H155.374C157.663 208.479 159.857 207.57 161.475 205.952C164.844 202.582 164.844 197.119 161.475 193.75L158.151 190.425C155.651 187.926 152.26 186.521 148.725 186.521H32.5997C15.4646 186.521 1.57385 172.631 1.57385 155.495V32.5997C1.57385 15.4646 15.4646 1.57385 32.5997 1.57385Z" fill="#E72462" fill-opacity="0.2" style="mix-blend-mode:color"/>
<path d="M32.5997 1.57385H155.495C172.631 1.57385 186.521 15.4646 186.521 32.5997V154.4C186.521 157.312 187.678 160.104 189.737 162.163C194.024 166.451 200.976 166.451 205.263 162.164C207.322 160.105 208.479 157.312 208.479 154.401V32.5997C208.479 15.4646 222.369 1.57385 239.505 1.57385H362.4C379.535 1.57385 393.426 15.4646 393.426 32.5997V155.495C393.426 172.631 379.535 186.521 362.4 186.521H246.275C242.74 186.521 239.35 187.926 236.85 190.425L233.525 193.75C230.156 197.119 230.156 202.582 233.525 205.952C235.143 207.57 237.338 208.479 239.626 208.479H362.4C379.535 208.479 393.426 222.369 393.426 239.505V362.4C393.426 379.535 379.535 393.426 362.4 393.426H239.505C222.369 393.426 208.479 379.535 208.479 362.4V245.301C208.479 242.389 207.322 239.597 205.263 237.538C200.976 233.251 194.024 233.251 189.737 237.538C187.678 239.597 186.521 242.39 186.521 245.302V362.4C186.521 379.535 172.631 393.426 155.495 393.426H32.5997C15.4646 393.426 1.57385 379.535 1.57385 362.4V239.505C1.57385 222.369 15.4646 208.479 32.5997 208.479H155.374C157.663 208.479 159.857 207.57 161.475 205.952C164.844 202.582 164.844 197.119 161.475 193.75L158.151 190.425C155.651 187.926 152.26 186.521 148.725 186.521H32.5997C15.4646 186.521 1.57385 172.631 1.57385 155.495V32.5997C1.57385 15.4646 15.4646 1.57385 32.5997 1.57385Z" stroke="#E72462" stroke-width="3.14771"/>
</svg>
