<svg width="82" height="82" viewBox="0 0 82 82" fill="none" xmlns="http://www.w3.org/2000/svg">
<circle cx="40.5448" cy="40.5448" r="40.5448" fill="#E72462"/>
<path d="M19.0031 30.598V40.4087H17.2258V30.598H19.0031ZM22.0458 30.598V32.0483H14.1831V30.598H22.0458ZM24.0848 33.2569C25.2128 33.2569 26.0233 33.4559 26.5162 33.854C27.0091 34.2427 27.2603 34.8209 27.2698 35.5887C27.2792 36.2238 27.1276 36.7072 26.8148 37.0389C26.5114 37.3612 26.0043 37.5224 25.2934 37.5224H21.3123V36.456H24.8242C25.1465 36.456 25.3503 36.3707 25.4356 36.2001C25.5304 36.0294 25.5778 35.8209 25.5778 35.5745C25.5683 35.1858 25.4545 34.9157 25.2365 34.764C25.028 34.6124 24.6678 34.5365 24.1559 34.5365C23.7104 34.5365 23.3645 34.5981 23.118 34.7214C22.8716 34.8446 22.6962 35.0673 22.5919 35.3896C22.4971 35.7119 22.4497 36.1764 22.4497 36.783C22.4497 37.4276 22.5114 37.9252 22.6346 38.2759C22.7578 38.6267 22.9616 38.8684 23.246 39.0011C23.5303 39.1243 23.9095 39.1859 24.3834 39.1859C24.7342 39.1859 25.137 39.1717 25.592 39.1433C26.0565 39.1148 26.502 39.0769 26.9285 39.0295L27.0991 40.1243C26.8432 40.2286 26.5494 40.3139 26.2176 40.3803C25.8858 40.4466 25.5399 40.494 25.1797 40.5224C24.8289 40.5604 24.4972 40.5793 24.1844 40.5793C23.3313 40.5793 22.6441 40.4561 22.1227 40.2096C21.6109 39.9537 21.2364 39.5556 20.9995 39.0153C20.772 38.475 20.6582 37.7783 20.6582 36.9252C20.6582 36.0057 20.772 35.2806 20.9995 34.7498C21.2364 34.2095 21.6061 33.8256 22.1085 33.5981C22.6204 33.3706 23.2791 33.2569 24.0848 33.2569ZM31.121 33.2569C31.358 33.2569 31.6186 33.2664 31.903 33.2853C32.1874 33.3043 32.4765 33.3422 32.7703 33.3991C33.0642 33.4559 33.3296 33.5365 33.5665 33.6408L33.3675 34.7214C33.0168 34.7024 32.666 34.6882 32.3153 34.6787C31.9741 34.6692 31.6755 34.6645 31.4196 34.6645C30.9361 34.6645 30.5522 34.7308 30.2679 34.8635C29.993 34.9868 29.7939 35.2143 29.6707 35.546C29.5475 35.8683 29.4859 36.3233 29.4859 36.911C29.4859 37.4987 29.5475 37.9584 29.6707 38.2902C29.7939 38.6124 29.993 38.8399 30.2679 38.9726C30.5522 39.1053 30.9361 39.1717 31.4196 39.1717C31.5617 39.1717 31.7466 39.167 31.9741 39.1575C32.2111 39.148 32.4622 39.1338 32.7277 39.1148C33.0025 39.0959 33.2679 39.0722 33.5239 39.0437L33.6945 40.1528C33.3248 40.3044 32.9125 40.4134 32.4575 40.4798C32.0025 40.5461 31.5523 40.5793 31.1068 40.5793C30.2726 40.5793 29.6044 40.4608 29.102 40.2239C28.5996 39.9869 28.2347 39.603 28.0072 39.0722C27.7892 38.5319 27.6801 37.8115 27.6801 36.911C27.6801 36.0105 27.7939 35.2948 28.0214 34.764C28.2489 34.2237 28.6138 33.8398 29.1162 33.6123C29.6186 33.3754 30.2868 33.2569 31.121 33.2569ZM38.8715 33.2569C40.1701 33.2569 40.8194 33.8967 40.8194 35.1763V40.4087H39.0847V35.7024C39.0847 35.3233 39.0184 35.0626 38.8857 34.9204C38.7625 34.7782 38.5444 34.7071 38.2316 34.7071C37.8809 34.7071 37.5207 34.783 37.151 34.9346C36.7814 35.0863 36.3359 35.3138 35.8145 35.6171L35.6866 34.6218C36.2174 34.1858 36.7482 33.8493 37.279 33.6123C37.8193 33.3754 38.3501 33.2569 38.8715 33.2569ZM35.9994 30.4559L36.0136 33.0152C36.0136 33.3659 35.9946 33.6976 35.9567 34.0104C35.9283 34.3138 35.8856 34.5744 35.8287 34.7925L35.9994 34.9915V40.4087H34.2789V30.4559H35.9994ZM47.9893 30.598V40.4087H46.212V30.598H47.9893ZM51.032 30.598V32.0483H43.1693V30.598H51.032ZM53.6914 33.2569C54.2506 33.2569 54.7198 33.3327 55.099 33.4844C55.4876 33.6265 55.7815 33.873 55.9805 34.2237C56.1796 34.5744 56.2791 35.0579 56.2791 35.674V40.4087H54.9141L54.6724 38.9015L54.5445 38.7025V35.6598C54.5445 35.2901 54.4591 35.0247 54.2885 34.8635C54.1179 34.6929 53.7909 34.6076 53.3075 34.6076C52.9473 34.6076 52.4923 34.6218 51.9425 34.6503C51.4022 34.6787 50.8572 34.7166 50.3074 34.764L50.151 33.5839C50.4828 33.5175 50.8572 33.4607 51.2742 33.4133C51.6913 33.3659 52.1131 33.328 52.5397 33.2995C52.9662 33.2711 53.3501 33.2569 53.6914 33.2569ZM55.5397 36.1148L55.5255 37.1811H52.3264C52.042 37.1906 51.8382 37.2664 51.715 37.4086C51.5918 37.5508 51.5302 37.7451 51.5302 37.9916V38.3755C51.5302 38.6598 51.606 38.8779 51.7577 39.0295C51.9093 39.1717 52.1463 39.2428 52.4686 39.2428C52.7245 39.2428 53.0089 39.1907 53.3217 39.0864C53.6345 38.9821 53.9425 38.8305 54.2459 38.6314C54.5587 38.4323 54.8383 38.1954 55.0848 37.9205V38.8162C54.99 38.9584 54.8525 39.129 54.6724 39.3281C54.4923 39.5177 54.2696 39.7073 54.0042 39.8968C53.7482 40.0864 53.4496 40.2428 53.1084 40.366C52.7766 40.4893 52.407 40.5509 51.9994 40.5509C51.5823 40.5509 51.2079 40.4798 50.8761 40.3376C50.5444 40.1859 50.2837 39.9679 50.0941 39.6836C49.9045 39.3897 49.8098 39.0295 49.8098 38.603V37.8636C49.8098 37.3138 49.9899 36.8873 50.3501 36.584C50.7197 36.2712 51.2221 36.1148 51.8572 36.1148H55.5397ZM59.0609 30.4559L59.0467 38.3044C59.0467 38.5698 59.1226 38.7736 59.2742 38.9158C59.4259 39.0485 59.6439 39.1148 59.9283 39.1148H60.5396L60.7387 40.3234C60.6344 40.3708 60.4875 40.4134 60.2979 40.4513C60.1178 40.4893 59.9283 40.513 59.7292 40.5224C59.5396 40.5414 59.3737 40.5509 59.2316 40.5509C58.6533 40.5509 58.1936 40.3945 57.8524 40.0817C57.5111 39.7689 57.3405 39.3186 57.3405 38.7309V30.4559H59.0609ZM67.301 33.4275L65.3104 35.9157C65.2346 36.0294 65.1398 36.1432 65.026 36.2569C64.9123 36.3612 64.8128 36.4418 64.7274 36.4987V36.5271C64.8128 36.584 64.9123 36.6788 65.026 36.8115C65.1398 36.9347 65.2346 37.0626 65.3104 37.1953L67.5285 40.4087H65.5805L63.0355 36.456L65.3531 33.4275H67.301ZM62.7084 30.4559L62.7227 34.7071C62.7227 35.0199 62.7037 35.3185 62.6658 35.6029C62.6374 35.8873 62.5947 36.1764 62.5378 36.4702C62.5852 36.7451 62.6231 37.0295 62.6516 37.3233C62.6895 37.6172 62.7084 37.892 62.7084 38.148V40.4087H60.988V30.4559H62.7084ZM63.7748 35.9441V37.0532H62.1539V35.9441H63.7748ZM21.3033 40.4701C22.1659 40.4701 22.8436 40.5649 23.3365 40.7544C23.8294 40.9345 24.1801 41.2521 24.3887 41.7071C24.6067 42.1526 24.7157 42.7877 24.7157 43.6123C24.7157 44.437 24.6114 45.0768 24.4029 45.5318C24.2038 45.9868 23.8673 46.3043 23.3934 46.4844C22.9289 46.6645 22.3081 46.7546 21.5308 46.7546C21.1042 46.7546 20.6919 46.7404 20.2938 46.7119C19.9052 46.6835 19.5402 46.6456 19.199 46.5982C18.8672 46.5508 18.5829 46.5034 18.3459 46.456C18.1089 46.3991 17.943 46.3517 17.8483 46.3138L17.8909 45.3612C18.4312 45.3612 18.9857 45.3612 19.5545 45.3612C20.1327 45.3612 20.7061 45.3612 21.2749 45.3612C21.6919 45.3517 22.019 45.2996 22.2559 45.2048C22.5024 45.11 22.673 44.9394 22.7678 44.6929C22.8721 44.437 22.9242 44.0768 22.9242 43.6123C22.9242 43.1479 22.8721 42.7924 22.7678 42.546C22.673 42.29 22.5024 42.1147 22.2559 42.0199C22.019 41.9156 21.6919 41.8635 21.2749 41.8635C20.4407 41.8635 19.7251 41.8682 19.1279 41.8777C18.5307 41.8872 18.1231 41.9014 17.9051 41.9204L17.7061 40.598C18.0852 40.5601 18.4407 40.5317 18.7724 40.5127C19.1137 40.4938 19.4786 40.4843 19.8673 40.4843C20.2654 40.4748 20.7441 40.4701 21.3033 40.4701ZM19.4834 40.598V50.4087H17.7061V40.598H19.4834ZM28.834 43.2569C29.3932 43.2569 29.8624 43.3327 30.2416 43.4844C30.6302 43.6265 30.9241 43.873 31.1231 44.2237C31.3222 44.5744 31.4217 45.0579 31.4217 45.674V50.4087H30.0567L29.815 48.9015L29.6871 48.7025V45.6598C29.6871 45.2901 29.6018 45.0247 29.4311 44.8635C29.2605 44.6929 28.9335 44.6076 28.4501 44.6076C28.0899 44.6076 27.6349 44.6218 27.0851 44.6503C26.5448 44.6787 25.9998 44.7166 25.45 44.764L25.2936 43.5839C25.6254 43.5175 25.9998 43.4607 26.4168 43.4133C26.8339 43.3659 27.2557 43.328 27.6823 43.2995C28.1088 43.2711 28.4927 43.2569 28.834 43.2569ZM30.6823 46.1148L30.6681 47.1811H27.469C27.1846 47.1906 26.9808 47.2664 26.8576 47.4086C26.7344 47.5508 26.6728 47.7451 26.6728 47.9916V48.3755C26.6728 48.6598 26.7486 48.8779 26.9003 49.0295C27.0519 49.1717 27.2889 49.2428 27.6112 49.2428C27.8671 49.2428 28.1515 49.1907 28.4643 49.0864C28.7771 48.9821 29.0852 48.8305 29.3885 48.6314C29.7013 48.4323 29.9809 48.1954 30.2274 47.9205V48.8162C30.1326 48.9584 29.9951 49.129 29.815 49.3281C29.6349 49.5177 29.4122 49.7073 29.1468 49.8968C28.8908 50.0864 28.5923 50.2428 28.251 50.366C27.9193 50.4893 27.5496 50.5509 27.142 50.5509C26.7249 50.5509 26.3505 50.4798 26.0187 50.3376C25.687 50.1859 25.4263 49.9679 25.2367 49.6836C25.0472 49.3897 24.9524 49.0295 24.9524 48.603V47.8636C24.9524 47.3138 25.1325 46.8873 25.4927 46.584C25.8623 46.2712 26.3647 46.1148 26.9998 46.1148H30.6823ZM37.0614 43.2569C38.36 43.2569 39.0093 43.8967 39.0093 45.1763V50.4087H37.2889V45.7024C37.2889 45.3233 37.2226 45.0626 37.0899 44.9204C36.9572 44.7782 36.7344 44.7071 36.4216 44.7071C36.0709 44.7071 35.7107 44.7877 35.341 44.9489C34.9713 45.1005 34.5258 45.3233 34.0045 45.6171L33.9334 44.5792C34.4453 44.1526 34.9666 43.8256 35.4974 43.5981C36.0282 43.3706 36.5496 43.2569 37.0614 43.2569ZM33.8765 43.4275L34.0471 44.7925L34.1893 44.9915V50.4087H32.4689V43.4275H33.8765ZM43.1878 43.2569C44.3158 43.2569 45.1262 43.4559 45.6191 43.854C46.112 44.2427 46.3632 44.8209 46.3727 45.5887C46.3822 46.2238 46.2305 46.7072 45.9177 47.0389C45.6144 47.3612 45.1073 47.5224 44.3964 47.5224H40.4152V46.456H43.9272C44.2494 46.456 44.4532 46.3707 44.5386 46.2001C44.6333 46.0294 44.6807 45.8209 44.6807 45.5745C44.6713 45.1858 44.5575 44.9157 44.3395 44.764C44.131 44.6124 43.7708 44.5365 43.2589 44.5365C42.8134 44.5365 42.4674 44.5981 42.221 44.7214C41.9745 44.8446 41.7992 45.0673 41.6949 45.3896C41.6001 45.7119 41.5527 46.1764 41.5527 46.783C41.5527 47.4276 41.6143 47.9252 41.7375 48.2759C41.8608 48.6267 42.0646 48.8684 42.3489 49.0011C42.6333 49.1243 43.0125 49.1859 43.4864 49.1859C43.8371 49.1859 44.24 49.1717 44.695 49.1433C45.1594 49.1148 45.6049 49.0769 46.0315 49.0295L46.2021 50.1243C45.9462 50.2286 45.6523 50.3139 45.3206 50.3803C44.9888 50.4466 44.6428 50.494 44.2826 50.5224C43.9319 50.5604 43.6001 50.5793 43.2873 50.5793C42.4342 50.5793 41.747 50.4561 41.2257 50.2096C40.7138 49.9537 40.3394 49.5556 40.1024 49.0153C39.8749 48.475 39.7612 47.7783 39.7612 46.9252C39.7612 46.0057 39.8749 45.2806 40.1024 44.7498C40.3394 44.2095 40.7091 43.8256 41.2115 43.5981C41.7233 43.3706 42.3821 43.2569 43.1878 43.2569ZM48.8305 40.4559L48.8163 48.3044C48.8163 48.5698 48.8922 48.7736 49.0438 48.9158C49.1955 49.0485 49.4135 49.1148 49.6979 49.1148H50.3093L50.5083 50.3234C50.404 50.3708 50.2571 50.4134 50.0675 50.4513C49.8874 50.4893 49.6979 50.513 49.4988 50.5224C49.3092 50.5414 49.1434 50.5509 49.0012 50.5509C48.423 50.5509 47.9632 50.3945 47.622 50.0817C47.2808 49.7689 47.1101 49.3186 47.1101 48.7309V40.4559H48.8305ZM52.5207 43.4275V50.4087H50.8145V43.4275H52.5207ZM52.0515 40.399C52.3927 40.399 52.5634 40.5696 52.5634 40.9108V41.7071C52.5634 42.0483 52.3927 42.2189 52.0515 42.2189H51.2837C50.9425 42.2189 50.7719 42.0483 50.7719 41.7071V40.9108C50.7719 40.5696 50.9425 40.399 51.2837 40.399H52.0515ZM56.2001 43.2569C56.5224 43.2569 56.8683 43.2664 57.238 43.2853C57.6172 43.3043 57.9869 43.3327 58.3471 43.3706C58.7073 43.3991 59.0295 43.4417 59.3139 43.4986L59.2002 44.6218C58.7452 44.6124 58.2902 44.6029 57.8352 44.5934C57.3897 44.5744 56.9489 44.565 56.5129 44.565C56.1243 44.565 55.8162 44.5744 55.5887 44.5934C55.3707 44.6124 55.2143 44.6692 55.1195 44.764C55.0342 44.8588 54.9915 45.0199 54.9915 45.2474C54.9915 45.5223 55.0674 45.7072 55.219 45.802C55.3707 45.8873 55.6171 45.9726 55.9584 46.0579L57.8636 46.4987C58.4324 46.6408 58.8542 46.8588 59.1291 47.1527C59.404 47.4371 59.5414 47.8778 59.5414 48.475C59.5414 49.0532 59.4324 49.494 59.2144 49.7973C59.0058 50.0911 58.6693 50.2949 58.2049 50.4087C57.7499 50.513 57.1669 50.5651 56.456 50.5651C56.1811 50.5651 55.7735 50.5509 55.2332 50.5224C54.6929 50.5035 54.1005 50.4419 53.456 50.3376L53.5697 49.2144C53.7593 49.2144 53.982 49.2191 54.238 49.2286C54.5034 49.238 54.783 49.2428 55.0768 49.2428C55.3802 49.2428 55.6882 49.2428 56.001 49.2428C56.5034 49.2428 56.8873 49.2286 57.1527 49.2001C57.4276 49.1622 57.6172 49.0911 57.7214 48.9869C57.8257 48.8731 57.8779 48.712 57.8779 48.5034C57.8779 48.238 57.7878 48.0627 57.6077 47.9774C57.4371 47.8826 57.1812 47.7925 56.8399 47.7072L54.9773 47.2522C54.5508 47.1385 54.219 46.9963 53.982 46.8257C53.7451 46.6456 53.5744 46.4276 53.4702 46.1716C53.3659 45.9062 53.3138 45.5839 53.3138 45.2048C53.3138 44.6929 53.4086 44.2948 53.5981 44.0104C53.7972 43.7261 54.1053 43.527 54.5223 43.4133C54.9489 43.2995 55.5081 43.2474 56.2001 43.2569ZM62.5783 41.4369V48.3044C62.5783 48.5982 62.6399 48.8068 62.7631 48.93C62.8958 49.0532 63.1186 49.1148 63.4314 49.1148H64.3982L64.5831 50.3234C64.4219 50.3708 64.2276 50.4134 64.0001 50.4513C63.7726 50.4893 63.5499 50.513 63.3319 50.5224C63.1138 50.5414 62.929 50.5509 62.7773 50.5509C62.1707 50.5509 61.6967 50.3897 61.3555 50.0675C61.0237 49.7357 60.8579 49.2617 60.8579 48.6456V41.4369H62.5783ZM64.6542 43.4275V44.6218H59.6209V43.4986L60.9858 43.4275H64.6542Z" fill="white"/>
</svg>
