<svg width="83" height="82" viewBox="0 0 83 82" fill="none" xmlns="http://www.w3.org/2000/svg">
<circle cx="41.4864" cy="40.5389" r="40.5448" fill="#5E66FF"/>
<path d="M19.9447 30.5921V40.4028H18.1674V30.5921H19.9447ZM22.9874 30.5921V32.0424H15.1247V30.5921H22.9874ZM25.0265 33.251C26.1545 33.251 26.9649 33.45 27.4578 33.8481C27.9507 34.2368 28.2019 34.815 28.2114 35.5828C28.2209 36.2178 28.0692 36.7013 27.7564 37.033C27.4531 37.3553 26.946 37.5165 26.2351 37.5165H22.2539V36.4501H25.7659C26.0881 36.4501 26.2919 36.3648 26.3772 36.1941C26.472 36.0235 26.5194 35.815 26.5194 35.5685C26.5099 35.1799 26.3962 34.9098 26.1782 34.7581C25.9696 34.6064 25.6095 34.5306 25.0976 34.5306C24.6521 34.5306 24.3061 34.5922 24.0597 34.7154C23.8132 34.8387 23.6378 35.0614 23.5336 35.3837C23.4388 35.706 23.3914 36.1704 23.3914 36.7771C23.3914 37.4217 23.453 37.9193 23.5762 38.27C23.6995 38.6207 23.9033 38.8625 24.1876 38.9952C24.472 39.1184 24.8511 39.18 25.3251 39.18C25.6758 39.18 26.0787 39.1658 26.5336 39.1373C26.9981 39.1089 27.4436 39.071 27.8702 39.0236L28.0408 40.1184C27.7849 40.2227 27.491 40.308 27.1592 40.3743C26.8275 40.4407 26.4815 40.4881 26.1213 40.5165C25.7706 40.5544 25.4388 40.5734 25.126 40.5734C24.2729 40.5734 23.5857 40.4502 23.0644 40.2037C22.5525 39.9478 22.1781 39.5497 21.9411 39.0094C21.7136 38.4691 21.5999 37.7724 21.5999 36.9193C21.5999 35.9998 21.7136 35.2747 21.9411 34.7439C22.1781 34.2036 22.5478 33.8197 23.0502 33.5922C23.562 33.3647 24.2208 33.251 25.0265 33.251ZM32.0626 33.251C32.2996 33.251 32.5603 33.2604 32.8446 33.2794C33.129 33.2983 33.4181 33.3363 33.712 33.3931C34.0058 33.45 34.2712 33.5306 34.5082 33.6348L34.3091 34.7154C33.9584 34.6965 33.6077 34.6823 33.257 34.6728C32.9157 34.6633 32.6171 34.6586 32.3612 34.6586C31.8778 34.6586 31.4939 34.7249 31.2095 34.8576C30.9346 34.9808 30.7356 35.2083 30.6124 35.5401C30.4891 35.8624 30.4275 36.3174 30.4275 36.9051C30.4275 37.4928 30.4891 37.9525 30.6124 38.2842C30.7356 38.6065 30.9346 38.834 31.2095 38.9667C31.4939 39.0994 31.8778 39.1658 32.3612 39.1658C32.5034 39.1658 32.6882 39.161 32.9157 39.1516C33.1527 39.1421 33.4039 39.1279 33.6693 39.1089C33.9442 39.0899 34.2096 39.0662 34.4655 39.0378L34.6361 40.1468C34.2665 40.2985 33.8541 40.4075 33.3992 40.4739C32.9442 40.5402 32.4939 40.5734 32.0484 40.5734C31.2143 40.5734 30.546 40.4549 30.0436 40.2179C29.5412 39.981 29.1763 39.5971 28.9488 39.0662C28.7308 38.526 28.6218 37.8056 28.6218 36.9051C28.6218 36.0046 28.7355 35.2889 28.963 34.7581C29.1905 34.2178 29.5555 33.8339 30.0578 33.6064C30.5602 33.3694 31.2285 33.251 32.0626 33.251ZM39.8131 33.251C41.1117 33.251 41.761 33.8908 41.761 35.1704V40.4028H40.0264V35.6965C40.0264 35.3173 39.96 35.0567 39.8273 34.9145C39.7041 34.7723 39.4861 34.7012 39.1733 34.7012C38.8226 34.7012 38.4624 34.7771 38.0927 34.9287C37.723 35.0804 37.2775 35.3079 36.7562 35.6112L36.6282 34.6159C37.159 34.1799 37.6898 33.8434 38.2207 33.6064C38.761 33.3694 39.2918 33.251 39.8131 33.251ZM36.941 30.4499L36.9552 33.0092C36.9552 33.36 36.9363 33.6917 36.8984 34.0045C36.8699 34.3078 36.8273 34.5685 36.7704 34.7865L36.941 34.9856V40.4028H35.2206V30.4499H36.941ZM48.931 30.5921V40.4028H47.1537V30.5921H48.931ZM51.9737 30.5921V32.0424H44.1109V30.5921H51.9737ZM54.633 33.251C55.1923 33.251 55.6615 33.3268 56.0406 33.4784C56.4293 33.6206 56.7231 33.8671 56.9222 34.2178C57.1212 34.5685 57.2207 35.0519 57.2207 35.6681V40.4028H55.8558L55.6141 38.8956L55.4861 38.6966V35.6538C55.4861 35.2842 55.4008 35.0188 55.2302 34.8576C55.0596 34.687 54.7325 34.6017 54.2491 34.6017C53.8889 34.6017 53.4339 34.6159 52.8842 34.6443C52.3439 34.6728 51.7988 34.7107 51.249 34.7581L51.0926 33.578C51.4244 33.5116 51.7988 33.4547 52.2159 33.4074C52.633 33.36 53.0548 33.322 53.4813 33.2936C53.9079 33.2652 54.2918 33.251 54.633 33.251ZM56.4814 36.1088L56.4672 37.1752H53.268C52.9837 37.1847 52.7799 37.2605 52.6567 37.4027C52.5334 37.5449 52.4718 37.7392 52.4718 37.9857V38.3696C52.4718 38.6539 52.5477 38.8719 52.6993 39.0236C52.851 39.1658 53.088 39.2369 53.4102 39.2369C53.6662 39.2369 53.9505 39.1847 54.2633 39.0805C54.5761 38.9762 54.8842 38.8245 55.1875 38.6255C55.5003 38.4264 55.78 38.1895 56.0264 37.9146V38.8103C55.9316 38.9525 55.7942 39.1231 55.6141 39.3222C55.434 39.5118 55.2112 39.7013 54.9458 39.8909C54.6899 40.0805 54.3913 40.2369 54.0501 40.3601C53.7183 40.4833 53.3486 40.545 52.941 40.545C52.524 40.545 52.1495 40.4739 51.8178 40.3317C51.486 40.18 51.2253 39.962 51.0358 39.6776C50.8462 39.3838 50.7514 39.0236 50.7514 38.597V37.8577C50.7514 37.3079 50.9315 36.8814 51.2917 36.578C51.6614 36.2652 52.1638 36.1088 52.7988 36.1088H56.4814ZM60.0026 30.4499L59.9884 38.2985C59.9884 38.5639 60.0642 38.7677 60.2159 38.9098C60.3675 39.0426 60.5855 39.1089 60.8699 39.1089H61.4813L61.6804 40.3175C61.5761 40.3649 61.4292 40.4075 61.2396 40.4454C61.0595 40.4833 60.8699 40.507 60.6709 40.5165C60.4813 40.5355 60.3154 40.545 60.1732 40.545C59.595 40.545 59.1353 40.3886 58.794 40.0757C58.4528 39.7629 58.2822 39.3127 58.2822 38.725V30.4499H60.0026ZM68.2426 33.4216L66.252 35.9098C66.1762 36.0235 66.0814 36.1373 65.9677 36.251C65.8539 36.3553 65.7544 36.4359 65.6691 36.4927V36.5212C65.7544 36.578 65.8539 36.6728 65.9677 36.8055C66.0814 36.9288 66.1762 37.0567 66.252 37.1894L68.4701 40.4028H66.5222L63.9771 36.4501L66.2947 33.4216H68.2426ZM63.6501 30.4499L63.6643 34.7012C63.6643 35.014 63.6454 35.3126 63.6074 35.597C63.579 35.8813 63.5363 36.1704 63.4795 36.4643C63.5269 36.7392 63.5648 37.0235 63.5932 37.3174C63.6311 37.6112 63.6501 37.8861 63.6501 38.1421V40.4028H61.9297V30.4499H63.6501ZM64.7165 35.9382V37.0472H63.0956V35.9382H64.7165ZM22.245 40.4642C23.1075 40.4642 23.7853 40.5589 24.2782 40.7485C24.7711 40.9286 25.1218 41.2462 25.3303 41.7012C25.5483 42.1467 25.6574 42.7817 25.6574 43.6064C25.6574 44.4311 25.5531 45.0709 25.3446 45.5259C25.1455 45.9809 24.809 46.2984 24.335 46.4785C23.8706 46.6586 23.2497 46.7487 22.4724 46.7487C22.0459 46.7487 21.6336 46.7344 21.2355 46.706C20.8468 46.6776 20.4819 46.6397 20.1406 46.5923C19.8089 46.5449 19.5245 46.4975 19.2875 46.4501C19.0506 46.3932 18.8847 46.3458 18.7899 46.3079L18.8326 45.3553C19.3729 45.3553 19.9274 45.3553 20.4961 45.3553C21.0743 45.3553 21.6478 45.3553 22.2165 45.3553C22.6336 45.3458 22.9606 45.2937 23.1976 45.1989C23.444 45.1041 23.6147 44.9335 23.7094 44.687C23.8137 44.4311 23.8658 44.0709 23.8658 43.6064C23.8658 43.1419 23.8137 42.7865 23.7094 42.54C23.6147 42.2841 23.444 42.1087 23.1976 42.014C22.9606 41.9097 22.6336 41.8576 22.2165 41.8576C21.3824 41.8576 20.6667 41.8623 20.0696 41.8718C19.4724 41.8813 19.0648 41.8955 18.8468 41.9144L18.6477 40.5921C19.0269 40.5542 19.3823 40.5258 19.7141 40.5068C20.0553 40.4879 20.4203 40.4784 20.8089 40.4784C21.207 40.4689 21.6857 40.4642 22.245 40.4642ZM20.425 40.5921V50.4028H18.6477V40.5921H20.425ZM29.7756 43.251C30.3349 43.251 30.8041 43.3268 31.1832 43.4784C31.5719 43.6206 31.8657 43.8671 32.0648 44.2178C32.2638 44.5685 32.3634 45.0519 32.3634 45.6681V50.4028H30.9984L30.7567 48.8956L30.6287 48.6966V45.6538C30.6287 45.2842 30.5434 45.0188 30.3728 44.8576C30.2022 44.687 29.8751 44.6017 29.3917 44.6017C29.0315 44.6017 28.5765 44.6159 28.0268 44.6443C27.4865 44.6728 26.9414 44.7107 26.3917 44.7581L26.2353 43.578C26.567 43.5116 26.9414 43.4547 27.3585 43.4074C27.7756 43.36 28.1974 43.322 28.6239 43.2936C29.0505 43.2652 29.4344 43.251 29.7756 43.251ZM31.624 46.1088L31.6098 47.1752H28.4107C28.1263 47.1847 27.9225 47.2605 27.7993 47.4027C27.676 47.5449 27.6144 47.7392 27.6144 47.9857V48.3696C27.6144 48.6539 27.6903 48.8719 27.8419 49.0236C27.9936 49.1658 28.2306 49.2369 28.5528 49.2369C28.8088 49.2369 29.0931 49.1847 29.4059 49.0805C29.7187 48.9762 30.0268 48.8245 30.3301 48.6255C30.6429 48.4264 30.9226 48.1895 31.169 47.9146V48.8103C31.0742 48.9525 30.9368 49.1231 30.7567 49.3222C30.5766 49.5118 30.3538 49.7013 30.0884 49.8909C29.8325 50.0805 29.5339 50.2369 29.1927 50.3601C28.8609 50.4833 28.4912 50.545 28.0836 50.545C27.6666 50.545 27.2921 50.4739 26.9604 50.3317C26.6286 50.18 26.368 49.962 26.1784 49.6776C25.9888 49.3838 25.894 49.0236 25.894 48.597V47.8577C25.894 47.3079 26.0741 46.8814 26.4343 46.578C26.804 46.2652 27.3064 46.1088 27.9415 46.1088H31.624ZM38.0031 43.251C39.3017 43.251 39.951 43.8908 39.951 45.1704V50.4028H38.2306V45.6965C38.2306 45.3173 38.1642 45.0567 38.0315 44.9145C37.8988 44.7723 37.6761 44.7012 37.3633 44.7012C37.0125 44.7012 36.6523 44.7818 36.2827 44.9429C35.913 45.0946 35.4675 45.3173 34.9461 45.6112L34.8751 44.5733C35.3869 44.1467 35.9083 43.8197 36.4391 43.5922C36.9699 43.3647 37.4912 43.251 38.0031 43.251ZM34.8182 43.4216L34.9888 44.7865L35.131 44.9856V50.4028H33.4106V43.4216H34.8182ZM44.1295 43.251C45.2575 43.251 46.0679 43.45 46.5608 43.8481C47.0537 44.2368 47.3049 44.815 47.3144 45.5828C47.3238 46.2178 47.1722 46.7013 46.8594 47.033C46.5561 47.3553 46.0489 47.5165 45.338 47.5165H41.3569V46.4501H44.8688C45.1911 46.4501 45.3949 46.3648 45.4802 46.1941C45.575 46.0235 45.6224 45.815 45.6224 45.5685C45.6129 45.1799 45.4992 44.9098 45.2811 44.7581C45.0726 44.6064 44.7124 44.5306 44.2006 44.5306C43.755 44.5306 43.4091 44.5922 43.1626 44.7154C42.9162 44.8387 42.7408 45.0614 42.6365 45.3837C42.5417 45.706 42.4944 46.1704 42.4944 46.7771C42.4944 47.4217 42.556 47.9193 42.6792 48.27C42.8024 48.6207 43.0062 48.8625 43.2906 48.9952C43.5749 49.1184 43.9541 49.18 44.428 49.18C44.7788 49.18 45.1816 49.1658 45.6366 49.1373C46.1011 49.1089 46.5466 49.071 46.9731 49.0236L47.1437 50.1184C46.8878 50.2227 46.594 50.308 46.2622 50.3743C45.9305 50.4407 45.5845 50.4881 45.2243 50.5165C44.8736 50.5544 44.5418 50.5734 44.229 50.5734C43.3759 50.5734 42.6887 50.4502 42.1673 50.2037C41.6555 49.9478 41.2811 49.5497 41.0441 49.0094C40.8166 48.4691 40.7028 47.7724 40.7028 46.9193C40.7028 45.9998 40.8166 45.2747 41.0441 44.7439C41.2811 44.2036 41.6507 43.8197 42.1531 43.5922C42.665 43.3647 43.3238 43.251 44.1295 43.251ZM49.7722 40.4499L49.758 48.2985C49.758 48.5639 49.8338 48.7677 49.9855 48.9098C50.1371 49.0426 50.3552 49.1089 50.6395 49.1089H51.2509L51.45 50.3175C51.3457 50.3649 51.1988 50.4075 51.0092 50.4454C50.8291 50.4833 50.6395 50.507 50.4405 50.5165C50.2509 50.5355 50.085 50.545 49.9428 50.545C49.3646 50.545 48.9049 50.3886 48.5636 50.0757C48.2224 49.7629 48.0518 49.3127 48.0518 48.725V40.4499H49.7722ZM53.4624 43.4216V50.4028H51.7562V43.4216H53.4624ZM52.9932 40.3931C53.3344 40.3931 53.505 40.5637 53.505 40.9049V41.7012C53.505 42.0424 53.3344 42.213 52.9932 42.213H52.2254C51.8841 42.213 51.7135 42.0424 51.7135 41.7012V40.9049C51.7135 40.5637 51.8841 40.3931 52.2254 40.3931H52.9932ZM57.1417 43.251C57.464 43.251 57.81 43.2604 58.1797 43.2794C58.5588 43.2983 58.9285 43.3268 59.2887 43.3647C59.6489 43.3931 59.9712 43.4358 60.2556 43.4927L60.1418 44.6159C59.6868 44.6064 59.2318 44.597 58.7768 44.5875C58.3313 44.5685 57.8906 44.559 57.4545 44.559C57.0659 44.559 56.7578 44.5685 56.5304 44.5875C56.3123 44.6064 56.1559 44.6633 56.0611 44.7581C55.9758 44.8529 55.9332 45.014 55.9332 45.2415C55.9332 45.5164 56.009 45.7012 56.1607 45.796C56.3123 45.8813 56.5588 45.9667 56.9 46.052L58.8053 46.4927C59.374 46.6349 59.7958 46.8529 60.0707 47.1468C60.3456 47.4311 60.483 47.8719 60.483 48.4691C60.483 49.0473 60.374 49.4881 60.156 49.7914C59.9475 50.0852 59.611 50.289 59.1465 50.4028C58.6915 50.507 58.1086 50.5592 57.3977 50.5592C57.1228 50.5592 56.7152 50.545 56.1749 50.5165C55.6346 50.4976 55.0422 50.4359 54.3976 50.3317L54.5113 49.2084C54.7009 49.2084 54.9237 49.2132 55.1796 49.2226C55.445 49.2321 55.7246 49.2369 56.0185 49.2369C56.3218 49.2369 56.6299 49.2369 56.9427 49.2369C57.4451 49.2369 57.829 49.2226 58.0944 49.1942C58.3693 49.1563 58.5588 49.0852 58.6631 48.9809C58.7674 48.8672 58.8195 48.7061 58.8195 48.4975C58.8195 48.2321 58.7295 48.0567 58.5494 47.9714C58.3787 47.8766 58.1228 47.7866 57.7816 47.7013L55.919 47.2463C55.4924 47.1326 55.1607 46.9904 54.9237 46.8198C54.6867 46.6397 54.5161 46.4216 54.4118 46.1657C54.3076 45.9003 54.2554 45.578 54.2554 45.1989C54.2554 44.687 54.3502 44.2889 54.5398 44.0045C54.7388 43.7202 55.0469 43.5211 55.464 43.4074C55.8905 43.2936 56.4498 43.2415 57.1417 43.251ZM63.5199 41.431V48.2985C63.5199 48.5923 63.5815 48.8008 63.7048 48.9241C63.8375 49.0473 64.0602 49.1089 64.373 49.1089H65.3399L65.5247 50.3175C65.3636 50.3649 65.1693 50.4075 64.9418 50.4454C64.7143 50.4833 64.4915 50.507 64.2735 50.5165C64.0555 50.5355 63.8707 50.545 63.719 50.545C63.1123 50.545 62.6384 50.3838 62.2972 50.0615C61.9654 49.7298 61.7995 49.2558 61.7995 48.6397V41.431H63.5199ZM65.5958 43.4216V44.6159H60.5625V43.4927L61.9275 43.4216H65.5958Z" fill="white"/>
</svg>
