<svg width="150" height="150" viewBox="0 0 150 150" fill="none" xmlns="http://www.w3.org/2000/svg">
<path d="M149.232 20.3069L149.232 129.693C149.232 140.484 140.484 149.232 129.693 149.232C118.902 149.232 110.154 140.484 110.154 129.693L110.154 20.3069C110.154 9.51582 118.902 0.767945 129.693 0.767945C140.484 0.767945 149.232 9.51583 149.232 20.3069ZM39.8457 20.3068L39.8457 129.693C39.8457 140.484 31.0978 149.232 20.3067 149.232C9.51563 149.232 0.76774 140.484 0.76774 129.693L0.767745 20.3068C0.767746 9.51576 9.51564 0.767887 20.3067 0.767887C31.0978 0.767888 39.8457 9.51578 39.8457 20.3068ZM94.5388 20.3068L94.5388 129.693C94.5388 140.484 85.7909 149.232 74.9998 149.232C64.2087 149.232 55.4609 140.484 55.4609 129.693L55.4609 20.3068C55.4609 9.51577 64.2087 0.767889 74.9998 0.76789C85.7909 0.76789 94.5388 9.51578 94.5388 20.3068Z" fill="#FFCE00" fill-opacity="0.05" stroke="#FFCE00" stroke-width="1.53579"/>
<mask id="mask0_79_137" style="mask-type:alpha" maskUnits="userSpaceOnUse" x="-1" y="22" width="151" height="128">
<path d="M149.232 42.8318L149.232 129.693C149.232 140.484 140.484 149.232 129.693 149.232C118.902 149.232 110.154 140.484 110.154 129.693L110.154 42.8318C110.154 32.0407 118.902 23.2928 129.693 23.2928C140.484 23.2928 149.232 32.0407 149.232 42.8318ZM39.8457 42.8317L39.8457 129.693C39.8457 140.484 31.0978 149.232 20.3067 149.232C9.51563 149.232 0.767741 140.484 0.767741 129.693L0.767745 42.8317C0.767746 32.0407 9.51564 23.2928 20.3067 23.2928C31.0978 23.2928 39.8457 32.0407 39.8457 42.8317ZM94.5388 42.8317L94.5388 129.693C94.5388 140.484 85.7909 149.232 74.9998 149.232C64.2087 149.232 55.4609 140.484 55.4609 129.693L55.4609 42.8317C55.4609 32.0407 64.2087 23.2928 74.9998 23.2928C85.7909 23.2928 94.5388 32.0407 94.5388 42.8317Z" fill="#FFCE00" fill-opacity="0.3"/>
<path d="M149.232 42.8318L149.232 129.693C149.232 140.484 140.484 149.232 129.693 149.232C118.902 149.232 110.154 140.484 110.154 129.693L110.154 42.8318C110.154 32.0407 118.902 23.2928 129.693 23.2928C140.484 23.2928 149.232 32.0407 149.232 42.8318ZM39.8457 42.8317L39.8457 129.693C39.8457 140.484 31.0978 149.232 20.3067 149.232C9.51563 149.232 0.767741 140.484 0.767741 129.693L0.767745 42.8317C0.767746 32.0407 9.51564 23.2928 20.3067 23.2928C31.0978 23.2928 39.8457 32.0407 39.8457 42.8317ZM94.5388 42.8317L94.5388 129.693C94.5388 140.484 85.7909 149.232 74.9998 149.232C64.2087 149.232 55.4609 140.484 55.4609 129.693L55.4609 42.8317C55.4609 32.0407 64.2087 23.2928 74.9998 23.2928C85.7909 23.2928 94.5388 32.0407 94.5388 42.8317Z" stroke="#FFCE00" stroke-width="1.53579"/>
</mask>
<g mask="url(#mask0_79_137)">
<rect y="61" width="150.507" height="89" fill="#FFCE00"/>
</g>
</svg>
