<svg width="150" height="150" viewBox="0 0 150 150" fill="none" xmlns="http://www.w3.org/2000/svg">
<path d="M148.908 22.5904V129.217C148.908 139.843 140.294 148.457 129.669 148.457C119.043 148.457 110.429 139.843 110.429 129.217V123.502C110.429 102.403 84.9201 91.8372 70.0013 106.756L42.3576 134.4C34.844 141.913 22.6621 141.913 15.1485 134.4C7.63493 126.886 7.63493 114.704 15.1485 107.191L42.3404 79.9987C57.2592 65.0799 46.6931 39.5711 25.5947 39.5711H20.3313C9.70551 39.5711 1.09159 30.9571 1.09159 20.3313C1.09159 9.70552 9.70552 1.09159 20.3313 1.09159H127.41C139.283 1.09159 148.908 10.7169 148.908 22.5904Z" fill="#E72462" fill-opacity="0.05" stroke="#E72462" stroke-width="2.18319"/>
<mask id="mask0_79_138" style="mask-type:alpha" maskUnits="userSpaceOnUse" x="0" y="61" width="150" height="88">
<rect y="61" width="150" height="88" fill="#E72462"/>
<rect y="61" width="150" height="88" fill="black" fill-opacity="0.2"/>
</mask>
<g mask="url(#mask0_79_138)">
<path d="M148.908 22.5903V129.217C148.908 139.843 140.294 148.457 129.669 148.457C119.043 148.457 110.429 139.843 110.429 129.217V123.502C110.429 102.403 84.9201 91.8372 70.0013 106.756L42.3576 134.4C34.844 141.913 22.6621 141.913 15.1485 134.4C7.63493 126.886 7.63493 114.704 15.1485 107.191L42.3404 79.9987C57.2592 65.0799 46.6931 39.5711 25.5948 39.5711H20.3313C9.70551 39.5711 1.09159 30.9571 1.09159 20.3313C1.09159 9.70552 9.70552 1.09159 20.3313 1.09159H127.41C139.283 1.09159 148.908 10.7169 148.908 22.5903Z" fill="#E72462" fill-opacity="0.75" stroke="#E72462" stroke-width="2.18319"/>
</g>
</svg>
