<svg width="423" height="213" viewBox="0 0 423 213" fill="none" xmlns="http://www.w3.org/2000/svg">
<g opacity="0.1">
<path d="M211.529 105.891L158.59 105.891C158.59 164.367 205.993 211.77 264.469 211.77L264.469 158.83C235.231 158.83 211.529 135.129 211.529 105.891Z" fill="black" fill-opacity="0.4"/>
<path d="M52.9396 105.879L3.78728e-05 105.879C3.86633e-05 75.5315 12.7615 48.1751 33.2184 28.8761C52.1918 10.9763 77.7629 -7.32376e-07 105.879 0L105.879 52.9396C85.5187 52.9396 67.8601 64.4225 58.9946 81.2609C55.1228 88.6065 52.9396 96.9895 52.9396 105.879Z" fill="black" fill-opacity="0.4"/>
<path d="M370.061 106.351L317.122 106.351C317.122 76.0036 329.883 48.6473 350.34 29.3483C369.313 11.4484 394.884 0.472167 423.001 0.472168L423.001 53.4117C402.64 53.4117 384.982 64.8946 376.116 81.733C372.244 89.0787 370.061 97.4617 370.061 106.351Z" fill="black" fill-opacity="0.4"/>
<path d="M158.591 105.89L211.53 105.89C211.53 47.4144 164.127 0.0112292 105.651 0.0112277L105.651 52.9508C134.889 52.9508 158.591 76.6524 158.591 105.89Z" fill="black" fill-opacity="0.4"/>
<path d="M264.298 159.119L264.298 212.059C322.774 212.059 370.177 164.656 370.177 106.18L317.238 106.18C317.238 135.418 293.536 159.119 264.298 159.119Z" fill="black" fill-opacity="0.4"/>
</g>
</svg>
